<mxfile host="app.diagrams.net" agent="Mozilla/5.0 (Windows NT 10.0; Win64; x64) AppleWebKit/537.36 (KHTML, like Gecko) Chrome/131.0.0.0 Safari/537.36 Edg/131.0.0.0" version="26.0.4">
  <diagram name="Page-1" id="Hw7-FKCep1lz-TS-hCTD">
    <mxGraphModel dx="925" dy="589" grid="1" gridSize="10" guides="1" tooltips="1" connect="1" arrows="1" fold="1" page="1" pageScale="1" pageWidth="850" pageHeight="1100" math="0" shadow="0">
      <root>
        <mxCell id="0" />
        <mxCell id="1" parent="0" />
        <mxCell id="JsCxAMUn6Lv9ljjGWmCi-1" value="Bắt đầu" style="ellipse;whiteSpace=wrap;html=1;" vertex="1" parent="1">
          <mxGeometry x="270" y="50" width="120" height="80" as="geometry" />
        </mxCell>
        <mxCell id="JsCxAMUn6Lv9ljjGWmCi-2" value="" style="endArrow=classic;html=1;rounded=0;" edge="1" parent="1" target="JsCxAMUn6Lv9ljjGWmCi-3">
          <mxGeometry width="50" height="50" relative="1" as="geometry">
            <mxPoint x="329.5" y="130" as="sourcePoint" />
            <mxPoint x="329.5" y="210" as="targetPoint" />
            <Array as="points" />
          </mxGeometry>
        </mxCell>
        <mxCell id="JsCxAMUn6Lv9ljjGWmCi-5" style="edgeStyle=orthogonalEdgeStyle;rounded=0;orthogonalLoop=1;jettySize=auto;html=1;exitX=0.5;exitY=1;exitDx=0;exitDy=0;" edge="1" parent="1" source="JsCxAMUn6Lv9ljjGWmCi-3" target="JsCxAMUn6Lv9ljjGWmCi-6">
          <mxGeometry relative="1" as="geometry">
            <mxPoint x="330.04761904761904" y="300" as="targetPoint" />
          </mxGeometry>
        </mxCell>
        <mxCell id="JsCxAMUn6Lv9ljjGWmCi-3" value="Nhập vào bản mã gốc, độ dịch k" style="shape=parallelogram;perimeter=parallelogramPerimeter;whiteSpace=wrap;html=1;fixedSize=1;" vertex="1" parent="1">
          <mxGeometry x="270" y="200" width="120" height="60" as="geometry" />
        </mxCell>
        <mxCell id="JsCxAMUn6Lv9ljjGWmCi-9" style="edgeStyle=orthogonalEdgeStyle;rounded=0;orthogonalLoop=1;jettySize=auto;html=1;exitX=0.5;exitY=1;exitDx=0;exitDy=0;" edge="1" parent="1" source="JsCxAMUn6Lv9ljjGWmCi-6" target="JsCxAMUn6Lv9ljjGWmCi-10">
          <mxGeometry relative="1" as="geometry">
            <mxPoint x="330.04761904761904" y="400" as="targetPoint" />
          </mxGeometry>
        </mxCell>
        <mxCell id="JsCxAMUn6Lv9ljjGWmCi-6" value="Tính toán giá trị khóa key, lưu lại vào mảng keys" style="rounded=0;whiteSpace=wrap;html=1;" vertex="1" parent="1">
          <mxGeometry x="269.997619047619" y="310" width="120" height="60" as="geometry" />
        </mxCell>
        <mxCell id="JsCxAMUn6Lv9ljjGWmCi-12" style="edgeStyle=orthogonalEdgeStyle;rounded=0;orthogonalLoop=1;jettySize=auto;html=1;" edge="1" parent="1" source="JsCxAMUn6Lv9ljjGWmCi-10" target="JsCxAMUn6Lv9ljjGWmCi-13">
          <mxGeometry relative="1" as="geometry">
            <mxPoint x="329.9976190476191" y="520.0000000000001" as="targetPoint" />
          </mxGeometry>
        </mxCell>
        <mxCell id="JsCxAMUn6Lv9ljjGWmCi-10" value="Ký tự bản gốc XOR key tương ứng được C[i]" style="rounded=0;whiteSpace=wrap;html=1;" vertex="1" parent="1">
          <mxGeometry x="269.997619047619" y="420" width="120" height="60" as="geometry" />
        </mxCell>
        <mxCell id="JsCxAMUn6Lv9ljjGWmCi-15" style="edgeStyle=orthogonalEdgeStyle;rounded=0;orthogonalLoop=1;jettySize=auto;html=1;exitX=1;exitY=0.5;exitDx=0;exitDy=0;" edge="1" parent="1" source="JsCxAMUn6Lv9ljjGWmCi-13">
          <mxGeometry relative="1" as="geometry">
            <mxPoint x="330.04761904761904" y="720" as="targetPoint" />
          </mxGeometry>
        </mxCell>
        <mxCell id="JsCxAMUn6Lv9ljjGWmCi-16" style="edgeStyle=orthogonalEdgeStyle;rounded=0;orthogonalLoop=1;jettySize=auto;html=1;exitX=0.5;exitY=0;exitDx=0;exitDy=0;" edge="1" parent="1" source="JsCxAMUn6Lv9ljjGWmCi-13">
          <mxGeometry relative="1" as="geometry">
            <mxPoint x="460" y="600.1428571428571" as="targetPoint" />
          </mxGeometry>
        </mxCell>
        <mxCell id="JsCxAMUn6Lv9ljjGWmCi-13" value="Mã ASCII C[i] nằm trong khoảng 32-126" style="rhombus;whiteSpace=wrap;html=1;direction=south;" vertex="1" parent="1">
          <mxGeometry x="257.5" y="540" width="145" height="120" as="geometry" />
        </mxCell>
        <mxCell id="JsCxAMUn6Lv9ljjGWmCi-17" value="Đúng" style="text;html=1;align=center;verticalAlign=middle;whiteSpace=wrap;rounded=0;" vertex="1" parent="1">
          <mxGeometry x="402.5" y="560" width="60" height="30" as="geometry" />
        </mxCell>
        <mxCell id="JsCxAMUn6Lv9ljjGWmCi-18" value="Hiển thị C[i] lên màn hình" style="rounded=0;whiteSpace=wrap;html=1;" vertex="1" parent="1">
          <mxGeometry x="462.5" y="570" width="120" height="60" as="geometry" />
        </mxCell>
        <mxCell id="JsCxAMUn6Lv9ljjGWmCi-19" value="Sai" style="text;html=1;align=center;verticalAlign=middle;whiteSpace=wrap;rounded=0;" vertex="1" parent="1">
          <mxGeometry x="330" y="670" width="60" height="30" as="geometry" />
        </mxCell>
        <mxCell id="JsCxAMUn6Lv9ljjGWmCi-22" style="edgeStyle=orthogonalEdgeStyle;rounded=0;orthogonalLoop=1;jettySize=auto;html=1;exitX=1;exitY=0.5;exitDx=0;exitDy=0;" edge="1" parent="1" source="JsCxAMUn6Lv9ljjGWmCi-21">
          <mxGeometry relative="1" as="geometry">
            <mxPoint x="460" y="780.1428571428571" as="targetPoint" />
          </mxGeometry>
        </mxCell>
        <mxCell id="JsCxAMUn6Lv9ljjGWmCi-23" style="edgeStyle=orthogonalEdgeStyle;rounded=0;orthogonalLoop=1;jettySize=auto;html=1;" edge="1" parent="1" source="JsCxAMUn6Lv9ljjGWmCi-21">
          <mxGeometry relative="1" as="geometry">
            <mxPoint x="327.5" y="890" as="targetPoint" />
          </mxGeometry>
        </mxCell>
        <mxCell id="JsCxAMUn6Lv9ljjGWmCi-21" value="Mã ASCII &amp;lt; 32" style="rhombus;whiteSpace=wrap;html=1;" vertex="1" parent="1">
          <mxGeometry x="257.5" y="720" width="140" height="120" as="geometry" />
        </mxCell>
        <mxCell id="JsCxAMUn6Lv9ljjGWmCi-24" value="Đúng" style="text;html=1;align=center;verticalAlign=middle;whiteSpace=wrap;rounded=0;" vertex="1" parent="1">
          <mxGeometry x="402.5" y="740" width="60" height="30" as="geometry" />
        </mxCell>
        <mxCell id="JsCxAMUn6Lv9ljjGWmCi-25" value="Sai" style="text;html=1;align=center;verticalAlign=middle;whiteSpace=wrap;rounded=0;" vertex="1" parent="1">
          <mxGeometry x="330" y="840" width="60" height="30" as="geometry" />
        </mxCell>
        <mxCell id="JsCxAMUn6Lv9ljjGWmCi-26" value="Xử lý và hiển thị lên màn hình @[Ký tự xử lý về dạng hiển thị được]" style="rounded=0;whiteSpace=wrap;html=1;" vertex="1" parent="1">
          <mxGeometry x="462.5" y="750" width="197.5" height="80" as="geometry" />
        </mxCell>
        <mxCell id="JsCxAMUn6Lv9ljjGWmCi-29" style="edgeStyle=orthogonalEdgeStyle;rounded=0;orthogonalLoop=1;jettySize=auto;html=1;exitX=0.5;exitY=1;exitDx=0;exitDy=0;" edge="1" parent="1">
          <mxGeometry relative="1" as="geometry">
            <mxPoint x="330.00047619047615" y="1030" as="targetPoint" />
            <mxPoint x="330.31" y="970" as="sourcePoint" />
          </mxGeometry>
        </mxCell>
        <mxCell id="JsCxAMUn6Lv9ljjGWmCi-32" value="Xử lý và hiển thị lên màn hình #[Ký tự đệm][Ký tự xử lý về dạng hiển thị được]" style="rounded=0;whiteSpace=wrap;html=1;" vertex="1" parent="1">
          <mxGeometry x="231.25" y="890" width="197.5" height="80" as="geometry" />
        </mxCell>
        <mxCell id="JsCxAMUn6Lv9ljjGWmCi-34" value="Kết thúc" style="ellipse;whiteSpace=wrap;html=1;" vertex="1" parent="1">
          <mxGeometry x="270" y="1030" width="120" height="80" as="geometry" />
        </mxCell>
      </root>
    </mxGraphModel>
  </diagram>
</mxfile>
